<mxfile host="app.diagrams.net" modified="2023-06-14T11:18:46.224Z" agent="Mozilla/5.0 (Windows NT 10.0; Win64; x64) AppleWebKit/537.36 (KHTML, like Gecko) Chrome/114.0.0.0 Safari/537.36" version="21.3.7" etag="ZCbATrYtzH-s4UehSuDZ" type="github">
  <diagram name="PÃ¡gina-1" id="UGzIhZ2Q2g0xv_r_jCem">
    <mxGraphModel>
      <root>
        <mxCell id="0" />
        <mxCell id="1" parent="0" />
      </root>
    </mxGraphModel>
  </diagram>
</mxfile>
